<svg width="59" height="58" viewBox="0 0 59 58" fill="none" xmlns="http://www.w3.org/2000/svg">
<path d="M30.7913 0L29.6494 50.7015H29.8698C31.2922 34.3918 32.7145 18.0821 34.1569 1.51348C35.8498 2.50919 36.591 3.39536 36.3005 5.43657C34.8681 15.2642 33.6962 25.1317 32.414 34.9892C31.9432 38.6036 31.4124 42.218 30.9416 45.8325C30.7962 46.6415 30.8408 47.4729 31.0718 48.262L39.1553 6.44223C40.5075 7.24876 41.2387 7.89597 40.808 9.67828C37.7129 22.3337 34.798 35.0191 31.793 47.6944C31.7496 47.8624 31.7414 48.0375 31.769 48.2088C31.7965 48.3801 31.8593 48.544 31.9533 48.6901L43.4725 10.6541C45.2855 11.4905 45.2955 12.5758 44.7546 14.0893C40.6678 25.53 36.6611 36.9906 32.6244 48.4611C32.5851 48.5808 32.5812 48.7091 32.6131 48.8309C32.6451 48.9527 32.7116 49.0628 32.8047 49.1482L47.4291 14.388L49.3122 16.0906C44.217 26.7846 39.1286 37.4386 34.0467 48.0529L34.4474 48.262C39.9866 38.3049 45.4658 28.3478 51.2254 18.0621C53.7997 20.9597 57.2354 22.8216 58.3172 26.7846C58.7245 28.1852 58.7342 29.6705 58.3453 31.0763C57.9564 32.4821 57.184 33.7536 56.1135 34.7502C49.2421 41.7003 42.3272 48.5773 35.369 55.3813C34.583 56.2145 33.6334 56.8786 32.579 57.3326C31.5246 57.7865 30.3878 58.0208 29.2387 58.0208C28.0897 58.0208 26.9528 57.7865 25.8984 57.3326C24.8441 56.8786 23.8945 56.2145 23.1085 55.3813C16.2304 48.5972 9.37563 41.7866 2.54424 34.9494C2.04472 34.3566 1.57286 33.7418 1.13007 33.107C0.342343 31.9776 0 30.6096 0 29.2326C0 27.4367 0.619538 25.6957 1.75407 24.3035L7.2621 17.5444C13.2721 28.4275 18.9816 38.6932 24.6611 48.959C24.7112 48.2668 24.5581 47.575 24.2204 46.9676C19.5826 37.2694 14.9649 27.5612 10.2671 17.8929C9.48581 16.2798 9.36561 15.1348 11.3389 14.3382C15.9399 25.291 20.5342 36.2438 25.1219 47.1966C25.314 46.6607 25.2889 46.0715 25.0518 45.5536C21.379 35.0257 17.7062 24.5077 14.0334 13.9997C13.4725 12.5658 13.2721 11.3511 15.2654 10.5744L26.8147 48.8992C26.9115 48.7543 26.9775 48.5912 27.0085 48.4199C27.0395 48.2487 27.0349 48.0729 26.995 47.9035C23.99 35.0888 20.985 22.284 17.8798 9.48911C17.4791 7.80636 18.0901 7.00979 19.5626 6.3327C22.2471 20.2726 24.9115 34.1428 27.576 47.9732C27.4487 44.1346 27.1143 40.3056 26.5743 36.5027C25.222 26.0477 23.9299 15.5928 22.4374 5.15777C22.1669 3.16635 22.8681 2.31004 24.581 1.42386C25.9733 17.5045 27.3456 33.416 28.5876 47.5849C28.5876 42.0687 28.6678 34.8299 28.5876 27.5911C28.4474 18.4007 28.1669 9.2103 27.9466 0.0199184L30.7913 0Z" fill="white"/>
</svg>
