<svg width="26" height="24" viewBox="0 0 26 24" fill="none" xmlns="http://www.w3.org/2000/svg">
<path d="M1.37426 3.17082C1.37426 3.17082 2.72536 0.814263 3.82508 0.688579C4.92481 0.562896 6.33874 0.562896 6.71579 1.28557C7.09284 2.00825 8.78956 6.18721 8.78956 6.18721C8.78956 6.18721 9.07235 6.90989 8.63246 7.60115C8.19257 8.29241 7.18711 9.29787 7.18711 9.29787C7.18711 9.29787 6.62153 10.0205 7.18711 10.7746C7.75268 11.5287 8.63246 12.9427 10.4234 14.7337C12.2144 16.5246 15.6707 17.8129 15.6707 17.8129C15.6707 17.8129 16.1734 17.8757 16.4877 17.5615C16.8019 17.2473 18.4986 15.1107 18.4986 15.1107C18.4986 15.1107 19.0327 14.388 19.9439 14.8279C20.8551 15.2364 24.7827 17.2159 24.7827 17.2159C24.7827 17.2159 25.254 17.373 25.254 18.0957C25.254 18.7869 24.9713 20.4837 24.4057 21.0807C23.8401 21.6462 22.1434 23.4372 19.5983 23.4372C17.0532 23.4372 11.0519 21.3634 7.81552 18.1585C4.6106 14.9536 1.75131 11.6858 1.09148 8.7323C0.463061 5.7159 0.557324 4.39623 1.37426 3.17082Z" fill="white"/>
</svg>
