<svg width="46" height="46" viewBox="0 0 46 46" fill="none" xmlns="http://www.w3.org/2000/svg">
<path d="M22.9999 46C18.978 46 15.019 44.9317 11.5313 42.9208L2.5764 46L4.43023 36.5109C1.53952 32.5519 0.0313217 27.9016 0.0313217 23C-9.91078e-05 10.306 10.3059 0 22.9999 0C35.6939 0 45.9999 10.306 45.9999 23C45.9999 35.694 35.6939 46 22.9999 46ZM11.9398 39.1503L12.631 39.5902C15.7417 41.5383 19.3551 42.5751 22.9999 42.5751C33.8086 42.5751 42.575 33.7773 42.575 23C42.575 12.1913 33.7772 3.42486 22.9999 3.42486C12.1912 3.42486 3.42476 12.2227 3.42476 23C3.42476 27.3989 4.87012 31.5464 7.5723 35.0342L8.04362 35.6626L7.06957 40.847L11.9398 39.1503Z" fill="white"/>
</svg>
