<svg width="31" height="31" viewBox="0 0 31 31" fill="none" xmlns="http://www.w3.org/2000/svg">
<path d="M23.71 5.5376C22.7023 5.5376 21.8962 6.35246 21.8962 7.35133C21.8962 8.3502 22.7111 9.16507 23.71 9.16507C24.7088 9.16507 25.5237 8.3502 25.5237 7.35133C25.5237 6.35246 24.7088 5.5376 23.71 5.5376Z" fill="white"/>
<path d="M15.6315 7.86816C11.4257 7.86816 7.99976 11.2941 7.99976 15.4999C7.99976 19.7056 11.4257 23.1316 15.6315 23.1316C19.8372 23.1316 23.2632 19.7056 23.2632 15.4999C23.2632 11.2941 19.8372 7.86816 15.6315 7.86816ZM15.6315 20.3891C12.9328 20.3891 10.7423 18.1986 10.7423 15.4999C10.7423 12.8012 12.9328 10.6107 15.6315 10.6107C18.3302 10.6107 20.5207 12.8012 20.5207 15.4999C20.5207 18.1986 18.3302 20.3891 15.6315 20.3891Z" fill="white"/>
<path d="M21.686 31H9.31402C4.17948 31 0 26.8205 0 21.686V9.31402C0 4.17948 4.17948 0 9.31402 0H21.6947C26.8293 0 31.0088 4.17948 31.0088 9.31402V21.6947C31.0088 26.8293 26.8293 31.0088 21.6947 31.0088L21.686 31ZM9.31402 2.91775C5.79169 2.91775 2.91775 5.78293 2.91775 9.31402V21.6947C2.91775 25.2171 5.78293 28.091 9.31402 28.091H21.6947C25.2171 28.091 28.091 25.2258 28.091 21.6947V9.31402C28.091 5.79169 25.2258 2.91775 21.6947 2.91775H9.31402Z" fill="white"/>
</svg>
