<svg width="49" height="41" viewBox="0 0 49 41" fill="none" xmlns="http://www.w3.org/2000/svg">
<mask id="mask0_54_3787" style="mask-type:alpha" maskUnits="userSpaceOnUse" x="1" y="2" width="46" height="37">
<path d="M5.42089 38.1769L1.13163 10.9144C8.94672 6.6267 12.4725 6.0745 23.3439 7.43561C32.041 8.52449 40.1811 4.61839 43.1639 2.52923C44.4574 8.45417 46.8391 21.5256 46.0183 26.412C44.9923 32.52 33.8104 36.0735 22.3548 34.4435C13.1903 33.1394 7.24697 36.3891 5.42089 38.1769Z" fill="#FBF7F4"/>
</mask>
<g mask="url(#mask0_54_3787)">
<rect width="54.6016" height="38.815" transform="matrix(0.987957 -0.154731 0.15542 0.987848 -4.65186 5.1521)" fill="#FBF7F4"/>
<path d="M29.2476 31.201C15.2824 28.7745 6.97527 32.7669 4.56737 35.0663L5.50824 41.0465L9.02682 38.1525L17.4886 36.8273L33.3586 40.1088L46.6519 30.4576L45.7941 25.0051C42.5635 27.4334 34.7314 32.0722 29.2476 31.201Z" fill="#D23207"/>
<path d="M20.6911 14.6993C12.0825 14.1732 3.35851 18.1948 0.0725821 20.2714L0.299587 25.7325C3.46591 22.5131 12.3104 16.5401 22.3576 18.4031C32.4048 20.2662 41.3381 15.2404 44.5488 12.4946C44.9262 12.4055 45.688 11.4691 45.7167 8.43693C37.8666 14.5684 25.7621 15.1666 20.6911 14.6993Z" fill="#D23207"/>
<path d="M19.4376 6.15505C10.829 5.629 2.30748 11.5112 -0.978443 13.5878L-0.751439 19.0489C2.41489 15.8295 11.2593 9.85649 21.3066 11.7195C31.3538 13.5826 40.2871 8.55678 43.4978 5.811C43.8751 5.72187 44.637 4.78555 44.6657 1.75334C36.8156 7.88482 24.5086 6.62238 19.4376 6.15505Z" fill="#D23207"/>
<path d="M0.770905 8.62806C0.770905 8.62806 11.9919 -0.146949 18.002 4.48762C23.6813 8.86708 21.3571 23.5161 21.3571 23.5161L3.73188 27.448L0.770905 8.62806Z" fill="#002AC3"/>
<path d="M21.9638 22.7899C13.3552 22.2638 4.63121 26.2854 1.34529 28.3619L1.57229 33.8231C4.73862 30.6037 13.5831 24.6307 23.6303 26.4937C33.6775 28.3567 42.6108 23.3309 45.8215 20.5852C46.1989 20.496 46.9607 19.5597 46.9894 16.5275C39.1393 22.659 27.0348 23.2572 21.9638 22.7899Z" fill="#D23207"/>
<path d="M5.0026 10.8486L5.49199 11.7682L6.58067 11.5977L5.79445 12.3365L6.28384 13.2561L5.30854 12.7931L4.52231 13.532L4.70576 12.507L3.73046 12.044L4.81914 11.8735L5.0026 10.8486Z" fill="#FBF7F4"/>
<path d="M5.55533 14.3664L6.04472 15.286L7.13341 15.1155L6.34718 15.8543L6.83658 16.7739L5.86127 16.311L5.07505 17.0498L5.2585 16.0248L4.28319 15.5619L5.37188 15.3914L5.55533 14.3664Z" fill="#FBF7F4"/>
<path d="M6.13712 18.06L6.62651 18.9796L7.71519 18.8091L6.92897 19.5479L7.41836 20.4675L6.44306 20.0046L5.65683 20.7434L5.84029 19.7184L4.86498 19.2555L5.95367 19.085L6.13712 18.06Z" fill="#FBF7F4"/>
<path d="M10.819 9.93744L11.3084 10.857L12.3971 10.6865L11.6109 11.4254L12.1002 12.345L11.1249 11.882L10.3387 12.6208L10.5222 11.5959L9.54687 11.1329L10.6356 10.9624L10.819 9.93744Z" fill="#FBF7F4"/>
<path d="M11.3749 13.4553L11.8643 14.3748L12.953 14.2043L12.1668 14.9432L12.6562 15.8628L11.6809 15.3998L10.8946 16.1387L11.0781 15.1137L10.1028 14.6507L11.1915 14.4802L11.3749 13.4553Z" fill="#FBF7F4"/>
<path d="M11.9535 17.1489L12.4429 18.0685L13.5316 17.8979L12.7454 18.6368L13.2348 19.5564L12.2595 19.0934L11.4732 19.8323L11.6567 18.8073L10.6814 18.3443L11.7701 18.1738L11.9535 17.1489Z" fill="#FBF7F4"/>
<path d="M16.6386 9.02655L17.128 9.94614L18.2167 9.77563L17.4304 10.5145L17.9198 11.4341L16.9445 10.9711L16.1583 11.71L16.3418 10.685L15.3664 10.222L16.4551 10.0515L16.6386 9.02655Z" fill="#FBF7F4"/>
<path d="M17.1913 12.5441L17.6807 13.4637L18.7694 13.2932L17.9832 14.0321L18.4726 14.9516L17.4973 14.4887L16.711 15.2275L16.8945 14.2026L15.9192 13.7396L17.0079 13.5691L17.1913 12.5441Z" fill="#FBF7F4"/>
<path d="M17.7729 16.2377L18.2623 17.1573L19.3509 16.9868L18.5647 17.7257L19.0541 18.6452L18.0788 18.1823L17.2926 18.9211L17.476 17.8962L16.5007 17.4332L17.5894 17.2627L17.7729 16.2377Z" fill="#FBF7F4"/>
<path d="M8.13076 11.8001L8.60036 12.7228L9.62501 12.5623L8.89059 13.2931L9.3602 14.2158L8.4367 13.7447L7.70229 14.4754L7.86595 13.4535L6.94245 12.9825L7.9671 12.822L8.13076 11.8001Z" fill="#FBF7F4"/>
<path d="M8.68642 15.3179L9.15603 16.2406L10.1807 16.0802L9.44626 16.8109L9.91586 17.7336L8.99237 17.2625L8.25795 17.9932L8.42161 16.9714L7.49812 16.5003L8.52276 16.3398L8.68642 15.3179Z" fill="#FBF7F4"/>
<path d="M9.26528 19.0115L9.73488 19.9342L10.7595 19.7738L10.0251 20.5045L10.4947 21.4272L9.57122 20.9561L8.83681 21.6868L9.00047 20.665L8.07698 20.1939L9.10162 20.0334L9.26528 19.0115Z" fill="#FBF7F4"/>
<path d="M13.9501 10.889L14.4197 11.8117L15.4443 11.6512L14.7099 12.3819L15.1795 13.3046L14.256 12.8335L13.5216 13.5643L13.6853 12.5424L12.7618 12.0713L13.7864 11.9109L13.9501 10.889Z" fill="#FBF7F4"/>
<path d="M14.5031 14.4068L14.9727 15.3295L15.9973 15.169L15.2629 15.8998L15.7325 16.8224L14.809 16.3514L14.0746 17.0821L14.2383 16.0602L13.3148 15.5892L14.3394 15.4287L14.5031 14.4068Z" fill="#FBF7F4"/>
<path d="M15.0846 18.1004L15.5542 19.0231L16.5789 18.8626L15.8445 19.5934L16.3141 20.516L15.3906 20.045L14.6561 20.7757L14.8198 19.7538L13.8963 19.2828L14.921 19.1223L15.0846 18.1004Z" fill="#FBF7F4"/>
</g>
<path d="M5.42187 38.1769L1.13261 10.9144C8.9477 6.6267 12.4734 6.0745 23.3449 7.43561C32.042 8.52449 40.182 4.61839 43.1649 2.52923C44.4584 8.45417 46.8401 21.5256 46.0193 26.412C44.9933 32.52 33.8113 36.0735 22.3557 34.4435C13.1912 33.1394 7.24795 36.3891 5.42187 38.1769Z" stroke="#FBF7F4" stroke-width="2"/>
</svg>
