<svg width="49" height="41" viewBox="0 0 49 41" fill="none" xmlns="http://www.w3.org/2000/svg">
<mask id="mask0_54_3831" style="mask-type:alpha" maskUnits="userSpaceOnUse" x="1" y="2" width="46" height="37">
<path d="M5.64208 38.1769L1.35283 10.9144C9.16792 6.6267 12.6937 6.0745 23.5651 7.43561C32.2622 8.52449 40.4023 4.61839 43.3852 2.52923C44.6786 8.45417 47.0603 21.5256 46.2395 26.412C45.2136 32.52 34.0316 36.0735 22.576 34.4435C13.4115 33.1394 7.46817 36.3891 5.64208 38.1769Z" fill="#FBF7F4"/>
</mask>
<g mask="url(#mask0_54_3831)">
<rect width="54.6016" height="38.815" transform="matrix(0.987957 -0.154731 0.15542 0.987848 -4.43066 5.1521)" fill="#002AC3"/>
<mask id="mask1_54_3831" style="mask-type:alpha" maskUnits="userSpaceOnUse" x="0" y="3" width="22" height="23">
<path d="M0.964914 8.47826C0.964914 8.47826 12.1871 0.35292 18.0766 4.49004C23.6419 8.39944 21.1508 21.7518 21.1508 21.7518L3.65169 25.5554L0.964914 8.47826Z" fill="#002AC3"/>
</mask>
<g mask="url(#mask1_54_3831)">
<rect width="22.8377" height="18.6104" transform="matrix(0.987957 -0.154731 0.15542 0.987848 -0.13208 8.84863)" fill="#002AC3"/>
<rect width="27.1258" height="4.39583" transform="matrix(0.921257 0.389758 -0.330248 0.943586 0.0493164 8.8667)" fill="#FBF7F4"/>
<path d="M-0.239297 9.6956L12.1579 14.8154L15.7935 17.4149L24.4758 20.8839L23.8795 22.7568L11.3846 17.4706L8.26086 16.149L8.9183 15.6246L-0.840505 11.5697L-0.239297 9.6956Z" fill="#D23207"/>
<rect width="26.258" height="3.99127" transform="matrix(0.792474 -0.609425 0.647224 0.762706 0.121338 22.7058)" fill="#FBF7F4"/>
<path d="M0.641327 23.3111L10.8647 15.3171L13.3349 14.2639L21.8043 7.80981L23 9.13538L12.5957 17.1365L10.6955 17.9958L9.90294 18.3594L1.83559 24.6412L0.641327 23.3111Z" fill="#D23207"/>
<rect width="22.8377" height="3.56067" transform="matrix(0.987957 -0.154731 0.15542 0.987848 0.259521 16.2349)" fill="#FBF7F4"/>
<rect width="19.7499" height="3.80628" transform="matrix(0.15542 0.987848 -0.987957 0.154731 12.1602 6.15503)" fill="#FBF7F4"/>
<rect width="19.7499" height="2.28377" transform="matrix(0.15542 0.987848 -0.987957 0.154731 11.4087 6.27271)" fill="#D23207"/>
<rect width="22.8377" height="2.1364" transform="matrix(0.987957 -0.154731 0.15542 0.987848 0.371826 16.9385)" fill="#D23207"/>
</g>
<path d="M32.2509 12.6191L32.8565 14.1413L34.0917 13.0627L33.4411 14.5663L35.0789 14.6751L33.5533 15.2792L34.6343 16.5116L33.1273 15.8625L33.0183 17.4966L32.4127 15.9744L31.1776 17.053L31.8281 15.5494L30.1903 15.4407L31.716 14.8365L30.6349 13.6041L32.1419 14.2532L32.2509 12.6191Z" fill="#FBF7F4"/>
<path d="M25.0784 23.3532L26.1498 26.0463L28.3351 24.138L27.1841 26.7982L30.0818 26.9906L27.3826 28.0596L29.2952 30.2399L26.6289 29.0915L26.4361 31.9826L25.3647 29.2895L23.1794 31.1978L24.3304 28.5376L21.4327 28.3452L24.1319 27.2762L22.2194 25.0959L24.8856 26.2443L25.0784 23.3532Z" fill="#FBF7F4"/>
<path d="M37.1109 21.4689L37.5301 22.5227L38.3853 21.776L37.9349 22.8169L39.0687 22.8922L38.0125 23.3105L38.7609 24.1637L37.7176 23.7143L37.6422 24.8456L37.2229 23.7918L36.3678 24.5385L36.8182 23.4975L35.6843 23.4222L36.7405 23.0039L35.9921 22.1508L37.0354 22.6001L37.1109 21.4689Z" fill="#FBF7F4"/>
<path d="M38.2828 16.672L38.702 17.7258L39.5571 16.9791L39.1067 18.02L40.2406 18.0953L39.1844 18.5136L39.9328 19.3668L38.8895 18.9174L38.814 20.0487L38.3948 18.9949L37.5397 19.7416L37.9901 18.7007L36.8562 18.6254L37.9124 18.2071L37.164 17.3539L38.2073 17.8033L38.2828 16.672Z" fill="#FBF7F4"/>
<path d="M30.0008 19.1228L30.3734 20.0595L31.1335 19.3958L30.7332 20.3211L31.7411 20.388L30.8022 20.7598L31.4675 21.5182L30.5401 21.1187L30.473 22.1243L30.1003 21.1876L29.3402 21.8514L29.7406 20.9261L28.7327 20.8592L29.6716 20.4873L29.0063 19.729L29.9337 20.1284L30.0008 19.1228Z" fill="#FBF7F4"/>
</g>
<path d="M5.6433 38.1769L1.35405 10.9144C9.16914 6.6267 12.6949 6.0745 23.5663 7.43561C32.2634 8.52449 40.4035 4.61839 43.3864 2.52923C44.6798 8.45417 47.0615 21.5256 46.2407 26.412C45.2148 32.52 34.0328 36.0735 22.5772 34.4435C13.4127 33.1394 7.46939 36.3891 5.6433 38.1769Z" stroke="#FBF7F4" stroke-width="2"/>
</svg>
