<svg width="49" height="41" viewBox="0 0 49 41" fill="none" xmlns="http://www.w3.org/2000/svg">
<mask id="mask0_54_3818" style="mask-type:alpha" maskUnits="userSpaceOnUse" x="1" y="2" width="46" height="37">
<path d="M5.43189 38.177L1.14262 10.9144C8.95773 6.62669 12.4835 6.0745 23.3549 7.43561C32.0521 8.52449 40.1922 4.61838 43.175 2.52921C44.4685 8.45417 46.8502 21.5257 46.0294 26.4121C45.0035 32.5201 33.8215 36.0736 22.3658 34.4435C13.2013 33.1395 7.25798 36.3892 5.43189 38.177Z" fill="#FBF7F4"/>
</mask>
<g mask="url(#mask0_54_3818)">
<rect width="54.6018" height="38.8151" transform="matrix(0.987957 -0.154731 0.15542 0.987848 -4.64087 5.15234)" fill="#FBF7F4"/>
<path d="M-0.116152 9.21132L10.6528 7.25796C10.6528 7.25796 14.0426 17.7992 14.7723 21.8032C15.502 25.8073 16.5262 39.4913 16.5262 39.4913L5.7573 41.4447C5.7573 41.4447 3.22538 29.9601 2.38944 24.5C1.55351 19.0399 -0.116152 9.21132 -0.116152 9.21132Z" fill="#D23207"/>
<path d="M30.9544 2L43.0303 0.257987C43.0303 0.257987 46.4201 10.7992 47.1498 14.8033C47.8795 18.8073 48.9037 32.4914 48.9037 32.4914L36.467 36C36.467 36 37.3029 22.4602 36.467 17C35.631 11.5399 30.9544 2 30.9544 2Z" fill="#D23207"/>
</g>
<path d="M26.3114 25.978L22.6806 27.1801L22.8355 25.4665L18.2844 23.0118L19.3522 22.211L17.7656 19.7143L20.6849 19.8906L20.665 18.4155L23.5395 20.4994L21.3439 15.9864L23.3053 16.3127L24.3011 13.2004L26.4444 16.0322L27.9716 14.9483L27.4747 19.8831L29.571 17.0207L29.9727 18.2248L32.8075 17.3585L31.9863 20.2323L33.3263 20.656L29.6703 24.3961L30.551 25.9475L26.7257 25.9131L27.0175 27.7679L26.3962 27.8652L26.3114 25.978Z" fill="#D23207"/>
<path d="M5.43311 38.177L1.14384 10.9144C8.95895 6.62669 12.4847 6.0745 23.3561 7.43561C32.0533 8.52449 40.1934 4.61838 43.1763 2.52921C44.4697 8.45417 46.8514 21.5257 46.0306 26.4121C45.0047 32.5201 33.8227 36.0736 22.367 34.4435C13.2025 33.1395 7.2592 36.3892 5.43311 38.177Z" stroke="#FBF7F4" stroke-width="2"/>
</svg>
