<svg width="49" height="41" viewBox="0 0 49 41" fill="none" xmlns="http://www.w3.org/2000/svg">
<mask id="mask0_54_3859" style="mask-type:alpha" maskUnits="userSpaceOnUse" x="0" y="0" width="48" height="41">
<path d="M6.00208 38.1742L1.71315 10.9138C9.52764 6.62637 13.0531 6.07421 23.9237 7.43521C32.6202 8.52402 40.7596 4.61821 43.7423 2.52921C45.0356 8.4537 47.4171 21.5242 46.5964 26.4102C45.5705 32.5177 34.3894 36.0709 22.9347 34.441C13.7709 33.1371 7.82803 36.3865 6.00208 38.1742Z" fill="#FBF7F4" stroke="#FBF7F4" stroke-width="2"/>
</mask>
<g mask="url(#mask0_54_3859)">
<rect width="54.5975" height="38.8121" transform="matrix(0.987957 -0.154731 0.15542 0.987848 -4.07031 5.15186)" fill="#002AC3"/>
<path d="M15.8366 19.8586L16.483 21.2183L17.849 21.0043L16.8826 22.0586L17.529 23.4182L16.2853 22.7102L15.3188 23.7644L15.5166 22.2725L14.2729 21.5644L15.6388 21.3505L15.8366 19.8586Z" fill="white"/>
<path d="M34.0715 17.0023L34.7601 18.3553L36.2627 18.12L35.1857 19.1915L35.8744 20.5446L34.5201 19.8538L33.4432 20.9254L33.6832 19.4269L32.329 18.7361L33.8315 18.5008L34.0715 17.0023Z" fill="white"/>
<path d="M25.6189 11.0225L24.386 11.6471L24.6004 13.01L23.6241 12.0332L22.3912 12.6578L23.0207 11.4295L22.0443 10.4526L23.4097 10.6703L24.0391 9.442L24.2535 10.8049L25.6189 11.0225Z" fill="white"/>
<path d="M28.5095 29.4056L27.2766 30.0302L27.4911 31.393L26.5147 30.4162L25.2819 31.0408L25.9113 29.8125L24.9349 28.8357L26.3003 29.0534L26.9297 27.8251L27.1441 29.1879L28.5095 29.4056Z" fill="white"/>
<path d="M18.8923 13.4757L18.4431 14.8484L19.6129 15.6988L18.1655 15.6969L17.7164 17.0696L17.271 15.6956L15.8237 15.6936L16.9958 14.8465L16.5504 13.4724L17.7202 14.3229L18.8923 13.4757Z" fill="white"/>
<path d="M33.8234 24.3289L33.3743 25.7017L34.544 26.5521L33.0967 26.5501L32.6475 27.9229L32.2022 26.5489L30.7548 26.5469L31.9269 25.6997L31.4816 24.3257L32.6513 25.1761L33.8234 24.3289Z" fill="white"/>
<path d="M32.2326 14.2314L30.8567 13.7833L30.0044 14.9504L30.0064 13.5063L28.6305 13.0582L30.0076 12.6138L30.0096 11.1697L30.8587 12.3392L32.2358 11.8948L31.3835 13.0619L32.2326 14.2314Z" fill="white"/>
<path d="M21.3547 29.1269L19.9788 28.6788L19.1264 29.8459L19.1284 28.4018L17.7525 27.9537L19.1297 27.5093L19.1316 26.0653L19.9808 27.2347L21.3579 26.7903L20.5056 27.9574L21.3547 29.1269Z" fill="white"/>
</g>
<path d="M6.00062 38.1742L1.71169 10.9138C9.52618 6.62637 13.0517 6.07421 23.9222 7.43521C32.6187 8.52402 40.7581 4.61821 43.7408 2.52921C45.0342 8.4537 47.4157 21.5242 46.595 26.4102C45.5691 32.5177 34.3879 36.0709 22.9332 34.441C13.7694 33.1371 7.82656 36.3865 6.00062 38.1742Z" stroke="#FBF7F4" stroke-width="2"/>
</svg>
