<svg width="123" height="155" viewBox="0 0 123 155" fill="none" xmlns="http://www.w3.org/2000/svg">
<g clip-path="url(#clip0_54_4319)">
<path d="M96.5704 155H90.7642C87.0503 155 83.5467 153.556 81.1523 151.041C79.1022 148.886 78.0504 146.143 78.1919 143.315L81.7834 72.0608C71.2727 67.3762 64.3306 56.876 64.3306 45.3709V7.8866C64.3344 3.53827 67.8724 0 72.2251 0C76.5778 0 80.1158 3.53827 80.1158 7.88278V40.0176C80.1158 41.5766 81.3856 42.8414 82.9424 42.8414H85.7689V7.8866C85.7689 3.53827 89.3108 0 93.6635 0C98.0162 0 101.554 3.53827 101.554 7.88278V42.8375H104.381C105.937 42.8375 107.207 41.569 107.207 40.0138V7.88278C107.207 3.5612 110.707 0.0420313 115.021 0H115.109C119.462 0 123 3.53445 123 7.88278V45.3709C123 56.8836 116.058 67.3838 105.54 72.0646L109.139 143.315C109.284 146.143 108.232 148.886 106.182 151.041C103.788 153.559 100.284 155 96.5665 155H96.5704ZM72.2251 5.06286C70.6684 5.06286 69.3985 6.33144 69.3985 7.8866V45.3709C69.3985 55.3973 75.7822 64.5028 85.287 68.0258L87.0273 68.6715L83.256 143.571C83.1642 145.405 84.0592 146.75 84.828 147.557C86.27 149.074 88.4349 149.941 90.768 149.941H96.5742C98.9073 149.941 101.076 149.07 102.518 147.557C103.283 146.75 104.178 145.405 104.086 143.571L100.303 68.6753L102.044 68.0296C111.552 64.5066 117.94 55.4011 117.94 45.3709V7.88278C117.94 6.33909 116.689 5.07815 115.148 5.05904H115.102C113.545 5.05904 112.275 6.32762 112.275 7.88278V40.0138C112.275 44.3621 108.733 47.8966 104.385 47.8966H96.4939V7.8866C96.4939 6.33144 95.224 5.06286 93.6673 5.06286C92.1106 5.06286 90.8407 6.33144 90.8407 7.8866V47.9004H82.95C78.5973 47.9004 75.0593 44.3621 75.0593 40.0176V7.8866C75.0593 6.32762 73.7895 5.06286 72.2327 5.06286H72.2251Z" fill="#4B72FF"/>
<path d="M32.236 155H26.4298C22.7159 155 19.2123 153.556 16.8179 151.041C14.7678 148.886 13.716 146.143 13.8575 143.315L17.4605 71.9767C6.33398 67.5252 0 57.0441 0 42.8987C0 32.9755 3.00252 22.5173 8.23876 14.2028C14.0028 5.04376 21.4957 0 29.3329 0C37.17 0 44.6629 5.04376 50.427 14.1989C55.6633 22.5135 58.6658 32.9755 58.6658 42.8949C58.6658 57.0403 52.3318 67.5252 41.2015 71.9729L44.8045 143.311C44.9498 146.139 43.898 148.883 41.8479 151.038C39.4535 153.552 35.9499 154.996 32.2321 154.996L32.236 155ZM29.3329 5.05904C23.3852 5.05904 17.2616 9.37298 12.5264 16.8928C7.85627 24.3132 5.06795 34.0339 5.06795 42.8949C5.06795 55.6533 10.6828 64.5066 20.8761 67.8271L22.7197 68.427L18.9254 143.564C18.8336 145.398 19.7287 146.743 20.4975 147.549C21.9394 149.066 24.1043 149.933 26.4375 149.933H32.2436C34.5768 149.933 36.7455 149.062 38.1875 147.549C38.9524 146.743 39.8474 145.398 39.7556 143.564L35.9614 68.4232L37.805 67.8232C47.9982 64.5028 53.6131 55.6495 53.6131 42.891C53.6131 34.0301 50.8248 24.3094 46.1508 16.8889C41.4156 9.36916 35.2882 5.05522 29.3444 5.05522L29.3329 5.05904Z" fill="#4B72FF"/>
</g>
<defs>
<clipPath id="clip0_54_4319">
<rect width="123" height="155" fill="white"/>
</clipPath>
</defs>
</svg>
