<svg width="142" height="152" viewBox="0 0 142 152" fill="none" xmlns="http://www.w3.org/2000/svg">
<g clip-path="url(#clip0_54_4325)">
<path d="M104.071 13.2455C101.015 12.8627 98.0248 13.8822 95.8491 16.0045C93.6965 18.1269 92.6625 21.0981 93.0507 24.1111C93.5466 28.0184 96.518 31.2436 100.304 32.2403V50.3445C100.304 66.7508 87.1925 80.0987 71.0709 80.0987H70.8979C54.3881 80.0987 40.4153 66.4741 40.4153 50.3445V32.1759C41.9644 31.7287 43.3866 30.9025 44.5706 29.7352C46.7463 27.5902 47.7572 24.6416 47.369 21.6287C46.8078 17.3196 43.2367 13.7988 38.8892 13.2683C35.8332 12.8855 32.8426 13.8822 30.6669 16.0273C28.4913 18.1496 27.4803 21.1209 27.8685 24.1338C28.3644 27.9957 31.2705 31.2208 35.0145 32.2403V50.3634C35.0145 69.381 51.4397 85.4462 70.8787 85.4462H71.0517C90.1447 85.4462 105.667 69.7183 105.667 50.3634V32.1531C107.173 31.687 108.573 30.8798 109.737 29.7352C111.913 27.5902 112.924 24.6416 112.536 21.6287C112.017 17.2969 108.442 13.7723 104.071 13.2455ZM33.2501 23.4327C33.0771 22.0532 33.5307 20.7153 34.5186 19.7603C35.3566 18.9341 36.479 18.4869 37.663 18.4869C37.8552 18.4869 38.0512 18.5059 38.2434 18.5286C40.2038 18.7636 41.8183 20.3553 42.0528 22.2843C42.2258 23.6639 41.7722 25.0017 40.7843 25.9567C39.7964 26.9307 38.4356 27.3779 37.0595 27.2074C35.1029 26.9535 33.4884 25.3617 33.2501 23.4289V23.4327ZM105.943 25.9567C104.975 26.9118 103.595 27.3779 102.219 27.2074C100.258 26.9535 98.6437 25.3807 98.4092 23.4516C98.2362 22.0721 98.6898 20.7343 99.6777 19.7792C100.516 18.9531 101.638 18.5059 102.822 18.5059C103.014 18.5059 103.21 18.5248 103.402 18.5475C105.363 18.7825 106.977 20.3743 107.212 22.3033C107.385 23.6411 106.931 24.9752 105.943 25.9529V25.9567Z" fill="#4B72FF"/>
<path d="M5.935 146.057C5.54676 145.656 5.35456 145.125 5.39684 144.572L14.4186 7.57593C14.484 6.53751 15.3643 5.73027 16.4213 5.73027L125.582 5.32855C126.636 5.32855 127.52 6.13579 127.585 7.17421L136.603 144.572C136.645 145.125 136.453 145.656 136.065 146.057C135.677 146.459 135.161 146.694 134.6 146.694H7.4034C6.84218 146.694 6.30402 146.459 5.93884 146.057H5.935ZM80.162 152H134.6C136.645 152 138.602 151.151 140.001 149.684C141.4 148.221 142.111 146.224 141.981 144.231L140.105 115.663L139.717 110.236L134.85 36.0378L134.527 30.7509L132.955 6.83312C132.721 2.99399 129.469 0 125.571 0H125.552L16.3983 0.405515C12.5236 0.424465 9.29463 3.41846 9.03708 7.23864L0.0152906 144.235C-0.115404 146.251 0.59573 148.225 1.99493 149.688C3.39414 151.151 5.35072 152.004 7.39955 152.004H80.162V152Z" fill="#4B72FF"/>
</g>
<defs>
<clipPath id="clip0_54_4325">
<rect width="142" height="152" fill="white"/>
</clipPath>
</defs>
</svg>
