<svg width="155" height="155" viewBox="0 0 155 155" fill="none" xmlns="http://www.w3.org/2000/svg">
<g clip-path="url(#clip0_54_4322)">
<path d="M76.6435 80.026C75.351 80.026 74.1732 79.3716 73.4849 78.2808C70.0395 72.7962 55.4665 64.5559 50.1435 61.8423C49.264 61.3945 48.7134 60.4912 48.7134 59.5038C48.7134 49.8933 50.9772 34.8021 61.7683 17.4833C68.1926 7.17243 74.5595 0.991264 74.8271 0.731004C75.8405 -0.24497 77.4465 -0.24497 78.4599 0.731004C78.7276 0.987436 85.0944 7.1686 91.5225 17.4871C97.4764 27.044 104.577 42.0932 104.577 59.5076C104.577 60.4951 104.023 61.3983 103.147 61.8423C97.8205 64.5559 83.2436 72.8 79.8059 78.2808C79.1214 79.3754 77.9398 80.026 76.6473 80.026H76.6435ZM53.9713 57.9231C58.518 60.3267 71.2747 67.4034 76.6435 73.7607C82.0123 67.4034 94.769 60.3267 99.3157 57.9231C98.6465 32.7276 82.2035 12.546 76.6435 6.42227C71.0835 12.546 54.6405 32.7276 53.9713 57.9231Z" fill="#4B72FF"/>
<path d="M77.4847 155C77.2629 155 77.0449 154.973 76.8346 154.916C59.0953 151.594 44.006 144.639 31.9835 134.248C22.3242 125.897 14.6342 115.337 9.13156 102.864C-0.202706 81.7177 -0.0115085 62.604 -3.66158e-05 61.8002C0.0229071 60.4071 1.13185 59.2742 2.52377 59.2206C3.01706 59.2014 14.8292 58.834 30.2818 63.8134C43.8607 68.1881 62.7777 77.6684 77.4961 98.095C92.2145 77.6684 111.132 68.1881 124.71 63.8134C140.167 58.834 151.975 59.2014 152.468 59.2206C153.86 59.2703 154.969 60.4032 154.992 61.8002C155.004 62.604 155.199 81.7177 145.868 102.868C140.366 115.341 132.676 125.901 123.016 134.252C110.99 144.647 95.8932 151.605 78.1424 154.923C77.9397 154.973 77.7332 155 77.5267 155C77.5114 155 77.4961 155 77.4808 155H77.4847ZM5.31143 64.5023C5.60205 70.3543 7.02838 85.2198 13.9956 100.927C19.1962 112.647 26.4273 122.548 35.49 130.36C46.721 140.039 60.8505 146.545 77.4961 149.711C94.1839 146.542 108.348 140.004 119.59 130.283C128.657 122.445 135.888 112.509 141.073 100.751C147.991 85.0705 149.398 70.3237 149.681 64.5023C145.486 64.6745 136.626 65.4592 126.118 68.8731C112.715 73.2248 93.7785 82.8774 79.6758 104.157C79.1901 104.889 78.3718 105.329 77.4923 105.329C76.6128 105.329 75.7945 104.889 75.3088 104.157C61.2061 82.8774 42.2699 73.2248 28.867 68.8731C18.3587 65.463 9.49866 64.6745 5.30378 64.5023H5.31143Z" fill="#4B72FF"/>
</g>
<defs>
<clipPath id="clip0_54_4322">
<rect width="155" height="155" fill="white"/>
</clipPath>
</defs>
</svg>
