<svg width="156" height="58" viewBox="0 0 156 58" fill="none" xmlns="http://www.w3.org/2000/svg">
<g clip-path="url(#clip0_54_1021)">
<path d="M30.7913 0L29.6494 50.7015H29.8698C31.2922 34.3918 32.7145 18.0821 34.1569 1.51348C35.8498 2.50919 36.591 3.39536 36.3005 5.43657C34.8681 15.2642 33.6962 25.1317 32.414 34.9892C31.9432 38.6036 31.4124 42.218 30.9416 45.8325C30.7962 46.6415 30.8408 47.4729 31.0718 48.262L39.1553 6.44223C40.5075 7.24876 41.2387 7.89597 40.808 9.67828C37.7129 22.3337 34.798 35.0191 31.793 47.6944C31.7496 47.8624 31.7414 48.0375 31.769 48.2088C31.7965 48.3801 31.8593 48.544 31.9533 48.6901L43.4725 10.6541C45.2855 11.4905 45.2955 12.5758 44.7546 14.0893C40.6678 25.53 36.6611 36.9906 32.6244 48.4611C32.5851 48.5808 32.5812 48.7091 32.6131 48.8309C32.6451 48.9527 32.7116 49.0628 32.8047 49.1482L47.4291 14.388L49.3122 16.0906C44.217 26.7846 39.1286 37.4386 34.0467 48.0529L34.4474 48.262C39.9866 38.3049 45.4658 28.3478 51.2254 18.0621C53.7997 20.9597 57.2354 22.8216 58.3172 26.7846C58.7245 28.1852 58.7342 29.6705 58.3453 31.0763C57.9564 32.4821 57.184 33.7536 56.1135 34.7502C49.2421 41.7003 42.3272 48.5773 35.369 55.3813C34.583 56.2145 33.6334 56.8786 32.579 57.3326C31.5246 57.7865 30.3878 58.0208 29.2387 58.0208C28.0897 58.0208 26.9528 57.7865 25.8984 57.3326C24.8441 56.8786 23.8945 56.2145 23.1085 55.3813C16.2304 48.5972 9.37563 41.7866 2.54424 34.9494C2.04472 34.3566 1.57286 33.7418 1.13007 33.107C0.342343 31.9776 0 30.6096 0 29.2326V29.2326C0 27.4367 0.619538 25.6957 1.75407 24.3035L7.2621 17.5444C13.2721 28.4275 18.9816 38.6932 24.6611 48.959C24.7112 48.2668 24.5581 47.575 24.2204 46.9676C19.5826 37.2694 14.9649 27.5612 10.2671 17.8929C9.48581 16.2798 9.36561 15.1348 11.3389 14.3382C15.9399 25.291 20.5342 36.2438 25.1219 47.1966C25.314 46.6607 25.2889 46.0715 25.0518 45.5536C21.379 35.0257 17.7062 24.5077 14.0334 13.9997C13.4725 12.5658 13.2721 11.3511 15.2654 10.5744L26.8147 48.8992C26.9115 48.7543 26.9775 48.5912 27.0085 48.4199C27.0395 48.2487 27.0349 48.0729 26.995 47.9035C23.99 35.0888 20.985 22.284 17.8798 9.48911C17.4791 7.80636 18.0901 7.00979 19.5626 6.3327C22.2471 20.2726 24.9115 34.1428 27.576 47.9732C27.4487 44.1346 27.1143 40.3056 26.5743 36.5027C25.222 26.0477 23.9299 15.5928 22.4374 5.15777C22.1669 3.16635 22.8681 2.31004 24.581 1.42386C25.9733 17.5045 27.3456 33.416 28.5876 47.5849C28.5876 42.0687 28.6678 34.8299 28.5876 27.5911C28.4474 18.4007 28.1669 9.2103 27.9466 0.0199184L30.7913 0Z" fill="white"/>
<path d="M91.9432 13.9199C90.7212 15.2044 90.7212 15.2044 84.3005 15.8118V35.3077H80.7245V16.0706H74.0634L74.6744 13.9199H91.9432Z" fill="white"/>
<path d="M109.292 25.7189C108.902 28.706 108.992 31.2451 111.406 32.8581C113.82 34.4712 116.053 33.595 118.137 31.8624L118.558 32.3204C118.055 33.1613 117.442 33.9315 116.735 34.6106C113.139 37.2691 107.93 35.7556 106.818 31.4641C106.243 29.0615 106.271 26.5552 106.898 24.1656C107.9 20.5512 112.568 18.8186 115.913 20.5014C116.863 21.0099 117.649 21.7765 118.177 22.7119C119.179 24.5041 118.598 25.5397 116.524 25.699C114.19 25.8284 111.816 25.7189 109.292 25.7189ZM109.603 24.7232C111.215 24.7232 112.608 24.8128 113.92 24.7232C114.501 24.6734 115.362 24.2851 115.503 23.8569C115.549 23.5424 115.515 23.2213 115.403 22.9235C115.29 22.6258 115.104 22.3611 114.861 22.1543C114.043 21.6433 113.08 21.4092 112.117 21.4871C110.584 21.7261 109.853 22.9608 109.603 24.7332V24.7232Z" fill="white"/>
<path d="M134.434 25.7886C133.602 28.7758 134.363 31.4642 136.237 32.8382C138.11 34.2123 140.243 33.8937 143.008 32.0018C143.188 33.7941 141.586 35.4072 139.302 35.7358C134.844 36.383 131.929 34.2123 131.288 29.7615C130.838 26.6947 131.158 23.7873 133.632 21.5867C136.106 19.3862 140.844 19.3663 142.647 21.8954C143.218 22.7817 143.459 23.8383 143.328 24.8825C143.278 25.2709 141.896 25.7189 141.095 25.7588C138.891 25.8683 136.707 25.7886 134.434 25.7886ZM134.303 24.0561L134.794 24.7431C136.146 24.7431 137.509 24.8228 138.801 24.7431C139.382 24.6834 140.353 24.2652 140.394 23.9267C140.429 23.5797 140.383 23.2293 140.26 22.9028C140.137 22.5763 139.939 22.2826 139.682 22.0448C139.282 21.7825 138.833 21.6025 138.362 21.5153C137.89 21.4281 137.406 21.4355 136.938 21.537C135.916 22.0149 135.165 23.1699 134.303 24.0561Z" fill="white"/>
<path d="M102.051 20.1828L104.525 20.4516L104.685 20.8897L102.191 21.985V35.2976H99.3461C99.3461 32.7884 99.5063 30.2394 99.296 27.7203C99.0957 25.4302 100.458 22.8214 98.4746 21.2283C98.8152 20.0732 99.1057 19.1572 99.336 18.2411C99.4162 17.7741 99.4565 17.3011 99.4563 16.8272C99.6866 12.9241 102.121 11.0422 106.017 11.9283C106.588 12.0578 107.019 12.9241 107.47 13.4717C106.768 13.6908 105.967 14.2284 105.396 14.0492C102.571 13.173 102.261 13.3124 102.061 16.3493C101.98 17.5939 102.051 18.8585 102.051 20.1828Z" fill="white"/>
<path d="M145.102 20.8501L146.905 20.1431C147.315 16.1603 147.315 16.1603 149.569 15.4932V20.163L152.574 20.4319L152.714 20.8102C152.243 21.0691 151.763 21.557 151.302 21.5371C149.729 21.4774 149.509 22.4332 149.499 23.5982C149.499 26.0377 149.439 28.4672 149.499 30.9067C149.499 33.6847 150.501 34.2423 153.095 33.0774C153.385 35.2082 151.903 35.5965 150.37 35.7558C148.257 35.9749 147.185 35.1584 147.095 33.1172C146.975 30.4089 147.095 27.7005 147.095 25.0022C147.095 22.3038 147.005 22.3735 145.102 20.8501Z" fill="white"/>
<path d="M121.673 20.7206C122.674 20.7206 124.207 19.1076 124.447 21.3479C125.658 20.8048 126.915 20.3716 128.204 20.0535C128.634 19.9738 129.205 20.8401 129.766 21.2782C129.225 21.6367 128.705 22.2739 128.144 22.2739C124.718 22.5428 124.407 22.8116 124.387 26.2567C124.387 29.2439 124.387 32.1712 124.387 35.2878H121.673V20.7206Z" fill="white"/>
<path d="M95.0985 35.3578H92.2638V20.4222L95.0985 20.0239V35.3578Z" fill="white"/>
<path d="M72.0596 40.6548H156V40.9137H71.9395L72.0596 40.6548Z" fill="white"/>
<path d="M112.989 53.7382L110.595 54.6343C110.705 51.9857 110.815 49.6558 110.925 47.0769L114.171 50.8208L115.172 50.064L114.101 48.0726L115.102 46.9375C117.106 49.0484 117.106 49.0484 115.533 50.8208C115.874 52.0256 118.458 52.4537 116.905 54.3555C115.753 53.3598 114.651 52.3641 113.449 51.5178C112.917 51.2877 112.347 51.1593 111.767 51.1394C112.017 51.7269 112.247 52.3342 112.538 52.9018C112.618 53.0412 112.869 53.1009 113.049 53.1906L112.989 53.7382Z" fill="white"/>
<path d="M150.871 54.1467C150.871 48.9889 150.871 48.9889 148.147 49.2478C147.915 50.8769 147.581 52.4898 147.145 54.077C147.065 54.3359 145.713 54.1865 144.951 54.2363L144.791 53.6687L147.245 52.3146L145.773 48.4711L145.232 48.5508C145.532 48.1226 145.863 47.3261 146.133 47.336C148.237 47.4655 150.33 47.7443 152.424 47.9832L151.422 54.2562L150.871 54.1467Z" fill="white"/>
<path d="M75.3055 53.5792L77.8297 52.3545L76.3673 48.5509L75.8264 48.6107C76.1069 48.1925 76.4074 47.3959 76.6578 47.4059C78.8414 47.5154 81.0151 47.7643 82.9683 47.9535L82.0668 54.1667L81.3757 54.0572C81.4358 53.3801 81.5159 52.703 81.566 52.0658C81.7763 49.0786 81.4959 48.8795 78.3706 49.3873C78.591 54.3858 78.4007 54.6745 75.3055 53.5792Z" fill="white"/>
<path d="M128.514 51.6178C129.065 50.0943 129.626 48.6306 130.197 47.0176C133.452 48.5311 134.504 50.1142 133.843 52.4243C132.931 55.5707 130.177 53.7386 127.963 54.6148C129.035 51.8667 131.248 53.3802 132.681 52.6234C133.242 50.7415 132.541 49.3177 130.828 49.0986C130.477 49.1384 130.138 49.2431 129.826 49.4073C129.908 49.7031 130.012 49.9926 130.137 50.2735C130.347 50.6718 130.597 51.0502 130.828 51.4385L129.315 52.1554L128.514 51.6178Z" fill="white"/>
<path d="M93.9863 48.6107C94.7376 46.3404 96.5105 47.7344 97.7326 47.6149C98.9546 47.4955 99.4955 48.521 99.2651 49.7458C98.9947 51.1597 100.036 52.8922 98.2635 54.0472C98.1933 52.5736 98.594 50.841 97.9129 49.8852C97.2317 48.9293 95.4888 49.0587 93.9863 48.6107Z" fill="white"/>
<path d="M94.0968 14.1489L95.5793 16.5486L93.005 18.1815L91.4424 15.752L94.0968 14.1489Z" fill="white"/>
</g>
<defs>
<clipPath id="clip0_54_1021">
<rect width="156" height="58" fill="white"/>
</clipPath>
</defs>
</svg>
